<svg class="icons" width="20" height="20" viewBox="0 0 20 20" version="1.1" xmlns="http://www.w3.org/2000/svg" xmlns:xlink="http://www.w3.org/1999/xlink">
	<title>Weer</title>
	<path fill="#D10A10" d="M8.29647 17.8713L9.11237 16.4409C9.25635 16.1827 9.18779 15.8687 8.93411 15.7152C8.67357 15.5617 8.39246 15.6594 8.23477 15.9315L7.41201 17.3689C7.27489 17.6131 7.32974 17.9271 7.59028 18.0806C7.85082 18.2272 8.15249 18.1225 8.29647 17.8713ZM3.1337 17.8783L3.94959 16.4409C4.09358 16.1897 4.02501 15.8687 3.77133 15.7152C3.51079 15.5686 3.22969 15.6594 3.07199 15.9315L2.24924 17.3689C2.11211 17.6201 2.16696 17.9341 2.4275 18.0806C2.68118 18.2342 2.98972 18.1225 3.1337 17.8783ZM10.3465 19.7204L11.1624 18.29C11.3064 18.0318 11.2378 17.7178 10.9841 17.5643C10.7236 17.4108 10.4425 17.5085 10.2848 17.7806L9.4689 19.218C9.32491 19.4692 9.37976 19.7763 9.6403 19.9298C9.90084 20.0763 10.2025 19.9716 10.3465 19.7204ZM5.18372 19.7274L5.99962 18.29C6.1436 18.0388 6.07504 17.7178 5.82136 17.5643C5.56082 17.4178 5.27971 17.5085 5.12202 17.7806L4.29926 19.218C4.16214 19.4692 4.21699 19.7832 4.47753 19.9298C4.73807 20.0833 5.03974 19.9716 5.18372 19.7274Z"></path>
	<path fill="#D10A10" d="M10.5792 14.3463H2.83164C1.15185 14.3463 0 13.2508 0 11.6389C0 10.362 0.767903 9.33626 1.95404 9.01528C2.13916 6.70563 4.03835 4.96118 6.34205 4.96118C8.3578 4.96118 9.62621 6.07065 10.305 7.36154C12.3824 7.35456 13.8977 8.85479 13.8977 10.8923C13.8977 12.8531 12.4647 14.3463 10.5792 14.3463Z"></path>
	<path fill="#D10A10" d="M13.7401 1.93983C13.7401 2.33756 13.411 2.67947 13.0133 2.67947C12.6225 2.67947 12.2934 2.33756 12.2934 1.93983V0.746624C12.2934 0.334934 12.6225 0 13.0133 0C13.411 0 13.7401 0.334934 13.7401 0.746624V1.93983Z"></path>
	<path fill="#D10A10" d="M9.93485 3.98432C9.6606 4.26343 9.19437 4.26343 8.90641 3.97036L8.08366 3.12605C7.80255 2.83996 7.78884 2.36547 8.06994 2.08636C8.35105 1.80027 8.82413 1.79329 9.09839 2.08636L9.928 2.93765C10.2022 3.23769 10.216 3.69823 9.93485 3.98432Z"></path>
	<path fill="#D10A10" d="M17.1339 3.97734C16.8528 4.26343 16.3797 4.27041 16.1055 3.9913C15.8244 3.70521 15.8244 3.22374 16.1055 2.93765L16.942 2.10032C17.2299 1.81423 17.6893 1.80725 17.9704 2.08636C18.2447 2.37245 18.2447 2.84694 17.9635 3.13303L17.1339 3.97734Z"></path>
	<path fill="#D10A10" d="M16.3729 7.11037C16.3729 8.27566 15.797 9.3014 14.9331 9.90846C14.5903 7.91282 12.979 6.48237 10.9633 6.35677C10.7576 5.94508 10.5039 5.60317 10.2022 5.30312C10.737 4.37507 11.8066 3.71218 13.027 3.71218C14.8714 3.71218 16.3729 5.23334 16.3729 7.11037Z"></path>
	<path fill="#D10A10" d="M19.2731 7.84304H18.1007C17.703 7.84304 17.3671 7.52206 17.3671 7.11735C17.3671 6.71264 17.703 6.3777 18.1007 6.3777H19.2731C19.6708 6.3777 19.9999 6.71264 19.9999 7.11735C19.9999 7.52206 19.6708 7.84304 19.2731 7.84304Z"></path>
	<path fill="#D10A10" d="M17.9635 12.1553C17.6824 12.4344 17.2231 12.4344 16.9351 12.1414L16.1055 11.297C15.8312 11.011 15.8175 10.5365 16.0986 10.2574C16.3729 9.97126 16.8528 9.97126 17.1271 10.2574L17.9498 11.1086C18.2309 11.4017 18.2447 11.8692 17.9635 12.1553Z"></path>
</svg>